
<svg width="256" height="256" viewBox="0 0 256 256" xmlns="http://www.w3.org/2000/svg">
  <defs>
    <linearGradient id="g" x1="0" x2="1" y1="0" y2="1">
      <stop offset="0%" stop-color="#0b0f1a"/>
      <stop offset="100%" stop-color="#0b1220"/>
    </linearGradient>
  </defs>
  <rect rx="36" ry="36" x="8" y="8" width="240" height="240" fill="url(#g)"/>
  <g fill="#e2b714">
    <path d="M64 176V80h40c20 0 36 16 36 36s-16 36-36 36H84v24H64zm20-44h20c9 0 16-7 16-16s-7-16-16-16H84v32z"/>
    <path d="M144 80h24l20 32 20-32h24l-30 48 30 48h-24l-20-32-20 32h-24l30-48-30-48z"/>
  </g>
</svg>
